# Blender v2.83.9 OBJ File: ''
# www.blender.org
mtllib parkmark.mtl
o 737
v 158.374969 0.000000 -256.920197
v 155.803818 0.000000 -259.984375
v 146.118271 0.000000 -246.635605
v 143.547119 0.000000 -249.699783
vt 11.037700 62.740299
vt 11.037700 62.278999
vt 11.440800 62.740299
vt 11.440800 62.278999
vn 0.0000 1.0000 0.0000
usemtl $Material_0.003
s 1
f 1/1/1 2/2/1 3/3/1
f 2/2/1 4/4/1 3/3/1
o 737.001
v 279.551300 0.000000 -256.920258
v 276.980133 0.000000 -259.984436
v 267.294586 0.000000 -246.635666
v 264.723419 0.000000 -249.699844
vt 11.037700 62.740299
vt 11.037700 62.278999
vt 11.440800 62.740299
vt 11.440800 62.278999
vn 0.0000 1.0000 0.0000
usemtl $Material_0.003
s 1
f 5/5/2 6/6/2 7/7/2
f 6/6/2 8/8/2 7/7/2
o 737.002
v 220.945084 0.000000 -256.920258
v 218.373932 0.000000 -259.984436
v 208.688385 0.000000 -246.635666
v 206.117233 0.000000 -249.699844
vt 11.037700 62.740299
vt 11.037700 62.278999
vt 11.440800 62.740299
vt 11.440800 62.278999
vn 0.0000 1.0000 0.0000
usemtl $Material_0.003
s 1
f 9/9/3 10/10/3 11/11/3
f 10/10/3 12/12/3 11/11/3
o atr
v 37.942608 0.450000 -225.845306
v 33.942612 0.450000 -225.841064
v 37.959572 0.450000 -209.845306
v 33.959576 0.450000 -209.841064
vt 11.500300 62.752399
vt 11.500300 62.249901
vt 11.939400 62.752399
vt 11.939400 62.249901
vn 0.0000 1.0000 0.0000
usemtl $Material_0.004
s 1
f 13/13/4 14/14/4 15/15/4
f 14/14/4 16/16/4 15/15/4
o atr.001
v 37.951092 0.450000 -225.843185
v 33.951092 0.450000 -225.843185
v 37.951092 0.450000 -209.843185
v 33.951092 0.450000 -209.843185
vt 11.500300 62.752399
vt 11.500300 62.249901
vt 11.939400 62.752399
vt 11.939400 62.249901
vn 0.0000 1.0000 0.0000
usemtl $Material_0.004
s 1
f 17/17/5 18/18/5 19/19/5
f 18/18/5 20/20/5 19/19/5
o atr.002
v 62.933098 0.450000 -209.843185
v 66.933098 0.450000 -209.843185
v 62.933098 0.450000 -225.843185
v 66.933098 0.450000 -225.843185
vt 11.500300 62.752399
vt 11.500300 62.249901
vt 11.939400 62.752399
vt 11.939400 62.249901
vn 0.0000 1.0000 0.0000
usemtl $Material_0.004
s 1
f 21/21/6 22/22/6 23/23/6
f 22/22/6 24/24/6 23/23/6
